<?xml version="1.0" encoding="UTF-8" standalone="no"?>
<!DOCTYPE svg PUBLIC "-//W3C//DTD SVG 1.1//EN" "http://www.w3.org/Graphics/SVG/1.1/DTD/svg11.dtd">
<!-- Generated by Microsoft Visio, SVG Export CNN_arch.svg Page-1 -->
<svg xmlns="http://www.w3.org/2000/svg" xmlns:xlink="http://www.w3.org/1999/xlink" xmlns:ev="http://www.w3.org/2001/xml-events"
		xmlns:v="http://schemas.microsoft.com/visio/2003/SVGExtensions/" width="3.0625in" height="2.28369in"
		viewBox="0 0 220.5 164.426" xml:space="preserve" color-interpolation-filters="sRGB" class="st12">
	<v:documentProperties v:langID="1033" v:viewMarkup="false">
		<v:userDefs>
			<v:ud v:nameU="msvNoAutoConnect" v:val="VT0(1):26"/>
		</v:userDefs>
	</v:documentProperties>

	<style type="text/css">
	<![CDATA[
		.st1 {fill:none;stroke:#000000;stroke-linecap:round;stroke-linejoin:round;stroke-width:0.5}
		.st2 {fill:#ffffff;stroke:#000000;stroke-linecap:round;stroke-linejoin:round;stroke-width:0.5}
		.st3 {stroke:#000000;stroke-dasharray:0.75,1.5;stroke-linecap:round;stroke-linejoin:round;stroke-width:0.75}
		.st4 {fill:#92d050;stroke:#000000;stroke-linecap:round;stroke-linejoin:round;stroke-width:0.75}
		.st5 {fill:#00b0f0;stroke:#000000;stroke-linecap:round;stroke-linejoin:round;stroke-width:0.75}
		.st6 {fill:#f59d56;stroke:#000000;stroke-linecap:round;stroke-linejoin:round;stroke-width:0.75}
		.st7 {stroke:#000000;stroke-linecap:round;stroke-linejoin:round;stroke-width:0.5}
		.st8 {fill:#000000;font-family:Calibri;font-size:0.333344em}
		.st9 {fill:none;stroke:none;stroke-linecap:round;stroke-linejoin:round;stroke-width:0.75}
		.st10 {fill:#000000;font-family:Calibri;font-size:0.416656em}
		.st11 {font-size:1em}
		.st12 {fill:none;fill-rule:evenodd;font-size:12px;overflow:visible;stroke-linecap:square;stroke-miterlimit:3}
	]]>
	</style>

	<g v:mID="0" v:index="1" v:groupContext="foregroundPage">
		<title>Page-1</title>
		<v:pageProperties v:drawingScale="1" v:pageScale="1" v:drawingUnits="19" v:shadowOffsetX="9" v:shadowOffsetY="-9"/>
		<g id="shape1-1" v:mID="1" v:groupContext="shape" transform="translate(34.6875,-48.2697)">
			<title>Sheet.1</title>
			<rect x="0" y="108.176" width="3.375" height="56.25" class="st1"/>
		</g>
		<g id="shape3-3" v:mID="3" v:groupContext="shape" transform="translate(59.5312,-51.2895)">
			<title>Sheet.3</title>
			<rect x="0" y="141.926" width="3.375" height="22.5" class="st1"/>
		</g>
		<g id="shape2-5" v:mID="2" v:groupContext="shape" transform="translate(57.8438,-49.75)">
			<title>Sheet.2</title>
			<rect x="0" y="141.926" width="3.375" height="22.5" class="st2"/>
		</g>
		<g id="shape4-7" v:mID="4" v:groupContext="shape" transform="translate(67.875,-84.2697)">
			<title>Sheet.4</title>
			<rect x="0" y="141.926" width="3.375" height="22.5" class="st1"/>
		</g>
		<g id="shape5-9" v:mID="5" v:groupContext="shape" transform="translate(66.1875,-82.0197)">
			<title>Sheet.5</title>
			<rect x="0" y="141.926" width="3.375" height="22.5" class="st2"/>
		</g>
		<g id="shape6-11" v:mID="6" v:groupContext="shape" transform="translate(-47.4454,-34.1178) rotate(-39.8174)">
			<title>Sheet.6</title>
			<path d="M0 164.43 L15.26 164.43" class="st3"/>
		</g>
		<g id="shape7-14" v:mID="7" v:groupContext="shape" transform="translate(34.6875,-69.676)">
			<title>Sheet.7</title>
			<rect x="0" y="158.801" width="3.375" height="5.625" class="st4"/>
		</g>
		<g id="shape8-16" v:mID="8" v:groupContext="shape" transform="translate(-33.0897,-59.1088) rotate(-25.641)">
			<title>Sheet.8</title>
			<path d="M0 164.43 L31.2 164.43" class="st3"/>
		</g>
		<g id="shape9-19" v:mID="9" v:groupContext="shape" transform="translate(-46.534,-46.2441) rotate(-30.9638)">
			<title>Sheet.9</title>
			<path d="M0 164.43 L32.8 164.43" class="st3"/>
		</g>
		<g id="shape10-22" v:mID="10" v:groupContext="shape" transform="translate(66.1875,-86.551)">
			<title>Sheet.10</title>
			<rect x="0" y="162.176" width="3.375" height="2.25" class="st4"/>
		</g>
		<g id="shape13-24" v:mID="13" v:groupContext="shape" transform="translate(89.8125,-82.4416)">
			<title>Sheet.13</title>
			<rect x="0" y="141.926" width="3.375" height="22.5" class="st1"/>
		</g>
		<g id="shape14-26" v:mID="14" v:groupContext="shape" transform="translate(88.125,-80.8947)">
			<title>Sheet.14</title>
			<rect x="0" y="141.926" width="3.375" height="22.5" class="st2"/>
		</g>
		<g id="shape15-28" v:mID="15" v:groupContext="shape" transform="translate(-65.9961,19.812) rotate(-57.9129)">
			<title>Sheet.15</title>
			<path d="M0 164.43 L27.88 164.43" class="st3"/>
		</g>
		<g id="shape16-31" v:mID="16" v:groupContext="shape" transform="translate(88.125,-86.551)">
			<title>Sheet.16</title>
			<rect x="0" y="162.176" width="3.375" height="2.25" class="st5"/>
		</g>
		<g id="shape17-33" v:mID="17" v:groupContext="shape" transform="translate(66.1875,-95.551)">
			<title>Sheet.17</title>
			<rect x="0" y="158.801" width="3.375" height="5.625" class="st5"/>
		</g>
		<g id="shape18-35" v:mID="18" v:groupContext="shape" transform="translate(160.77,-73.5607) rotate(33.6901)">
			<title>Sheet.18</title>
			<path d="M0 164.43 L22.31 164.43" class="st3"/>
		</g>
		<g id="shape19-38" v:mID="19" v:groupContext="shape" transform="translate(141.297,-79.0778) rotate(25.8664)">
			<title>Sheet.19</title>
			<path d="M0 164.43 L20.63 164.43" class="st3"/>
		</g>
		<g id="shape22-41" v:mID="22" v:groupContext="shape" transform="translate(112.312,-74.5905)">
			<title>Sheet.22</title>
			<rect x="0" y="144.887" width="3.375" height="19.5395" class="st1"/>
		</g>
		<g id="shape23-43" v:mID="23" v:groupContext="shape" transform="translate(110.625,-73.051)">
			<title>Sheet.23</title>
			<rect x="0" y="144.887" width="3.375" height="19.5395" class="st2"/>
		</g>
		<g id="shape24-45" v:mID="24" v:groupContext="shape" transform="translate(-51.337,44.9186) rotate(-61.381)">
			<title>Sheet.24</title>
			<path d="M0 164.43 L36.8 164.43" class="st3"/>
		</g>
		<g id="shape25-48" v:mID="25" v:groupContext="shape" transform="translate(110.625,-77.551)">
			<title>Sheet.25</title>
			<rect x="0" y="162.176" width="3.375" height="2.25" class="st6"/>
		</g>
		<g id="shape26-50" v:mID="26" v:groupContext="shape" transform="translate(204.192,-50.86) rotate(43.2643)">
			<title>Sheet.26</title>
			<path d="M0 164.43 L26.26 164.43" class="st3"/>
		</g>
		<g id="shape27-53" v:mID="27" v:groupContext="shape" transform="translate(211.04,-48.5238) rotate(46.6366)">
			<title>Sheet.27</title>
			<path d="M0 164.43 L27.85 164.43" class="st3"/>
		</g>
		<g id="group31-56" transform="translate(114.684,-36.2854)" v:mID="31" v:groupContext="group">
			<title>Sheet.31</title>
			<g id="shape28-57" v:mID="28" v:groupContext="shape" transform="translate(-151.86,101.382) rotate(-67.4545)">
				<title>Sheet.28</title>
				<path d="M0 164.43 L76.32 164.43" class="st7"/>
			</g>
			<g id="shape29-60" v:mID="29" v:groupContext="shape">
				<title>Sheet.29</title>
				<path d="M0 164.43 L4.18 164.43 L33.44 93.94" class="st7"/>
			</g>
			<g id="shape30-63" v:mID="30" v:groupContext="shape" transform="translate(29.2612,-70.4844)">
				<title>Sheet.30</title>
				<path d="M0 164.43 L4.18 164.43" class="st7"/>
			</g>
		</g>
		<g id="shape32-66" v:mID="32" v:groupContext="shape" transform="translate(-9.94697,17.7999) rotate(-39.5211)">
			<title>Sheet.32</title>
			<path d="M0 164.43 L25.92 164.43" class="st3"/>
		</g>
		<g id="shape33-69" v:mID="33" v:groupContext="shape" transform="translate(256.589,-66.2878) rotate(53.2308)">
			<title>Sheet.33</title>
			<path d="M0 164.43 L31.86 164.43" class="st3"/>
		</g>
		<g id="shape34-72" v:mID="34" v:groupContext="shape" transform="translate(264.283,-58.7195) rotate(44.9463)">
			<title>Sheet.34</title>
			<path d="M0 164.43 L18.91 164.43" class="st3"/>
		</g>
		<g id="shape35-75" v:mID="35" v:groupContext="shape" transform="translate(90.858,-33.8828) rotate(-9.80668)">
			<title>Sheet.35</title>
			<path d="M0 164.43 L13.67 164.43" class="st3"/>
		</g>
		<g id="shape36-78" v:mID="36" v:groupContext="shape" transform="translate(161.509,-88.6291)">
			<title>Sheet.36</title>
			<desc>“Idle”</desc>
			<v:textBlock v:margins="rect(4,4,4,4)"/>
			<v:textRect cx="14.8789" cy="162.035" width="29.76" height="4.78125"/>
			<rect x="0" y="159.645" width="29.7578" height="4.78125" class="st2"/>
			<text x="10.2" y="163.24" class="st8" v:langID="1033"><v:paragraph v:horizAlign="1"/><v:tabList/>“Idle”</text>		</g>
		<g id="shape38-81" v:mID="38" v:groupContext="shape" transform="translate(156.447,-80.5164)">
			<title>Sheet.38</title>
			<desc>“walk”</desc>
			<v:textBlock v:margins="rect(4,4,4,4)"/>
			<v:textRect cx="14.8789" cy="162.035" width="29.76" height="4.78125"/>
			<rect x="0" y="159.645" width="29.7578" height="4.78125" class="st2"/>
			<text x="9.45" y="163.24" class="st8" v:langID="1033"><v:paragraph v:horizAlign="1"/><v:tabList/>“walk”</text>		</g>
		<g id="shape43-84" v:mID="43" v:groupContext="shape" transform="translate(18.375,-106.77)">
			<title>Sheet.43</title>
			<desc>Input Layer (1x44)</desc>
			<v:textBlock v:margins="rect(4,4,4,4)"/>
			<v:textRect cx="18" cy="158.676" width="36" height="11.5"/>
			<rect x="0" y="152.926" width="36" height="11.5" class="st9"/>
			<text x="6.53" y="157.18" class="st10" v:langID="1033"><v:paragraph v:horizAlign="1"/><v:tabList/>Input Layer<v:newlineChar/><tspan
						x="11.6" dy="1.2em" class="st11">(</tspan>1x44)</text>		</g>
		<g id="shape44-88" v:mID="44" v:groupContext="shape" transform="translate(51.5625,-107.645)">
			<title>Sheet.44</title>
			<desc>1D Conv (1x3)x32</desc>
			<v:textBlock v:margins="rect(4,4,4,4)"/>
			<v:textRect cx="18" cy="158.676" width="36" height="11.5"/>
			<rect x="0" y="152.926" width="36" height="11.5" class="st9"/>
			<text x="9.54" y="157.18" class="st10" v:langID="1033"><v:paragraph v:horizAlign="1"/><v:tabList/>1D Conv<v:newlineChar/><tspan
						x="9.25" dy="1.2em" class="st11">(</tspan>1x3)x32</text>		</g>
		<g id="shape45-92" v:mID="45" v:groupContext="shape" transform="translate(81,-126.77)">
			<title>Sheet.45</title>
			<desc>1D Conv (1x3)x64</desc>
			<v:textBlock v:margins="rect(4,4,4,4)"/>
			<v:textRect cx="18" cy="158.676" width="36" height="11.5"/>
			<rect x="0" y="152.926" width="36" height="11.5" class="st9"/>
			<text x="9.54" y="157.18" class="st10" v:langID="1033"><v:paragraph v:horizAlign="1"/><v:tabList/>1D Conv<v:newlineChar/><tspan
						x="9.25" dy="1.2em" class="st11">(</tspan>1x3)x64</text>		</g>
		<g id="shape46-96" v:mID="46" v:groupContext="shape" transform="translate(103.125,-134.551)">
			<title>Sheet.46</title>
			<desc>1D Conv (1x3)x128</desc>
			<v:textBlock v:margins="rect(4,4,4,4)"/>
			<v:textRect cx="22.2188" cy="158.676" width="44.44" height="11.5"/>
			<rect x="0" y="152.926" width="44.4375" height="11.5" class="st9"/>
			<text x="13.75" y="157.18" class="st10" v:langID="1033"><v:paragraph v:horizAlign="1"/><v:tabList/>1D Conv<v:newlineChar/><tspan
						x="12.2" dy="1.2em" class="st11">(</tspan>1x3)x128</text>		</g>
		<g id="shape47-100" v:mID="47" v:groupContext="shape" transform="translate(126.563,-109.789)">
			<title>Sheet.47</title>
			<desc>Fully Connected (1x128)</desc>
			<v:textBlock v:margins="rect(4,4,4,4)"/>
			<v:textRect cx="26.1563" cy="158.676" width="52.32" height="11.5"/>
			<rect x="0" y="152.926" width="52.3125" height="11.5" class="st9"/>
			<text x="9.88" y="157.18" class="st10" v:langID="1033"><v:paragraph v:horizAlign="1"/><v:tabList/>Fully Connected<v:newlineChar/><tspan
						x="18.49" dy="1.2em" class="st11">(</tspan>1x128)</text>		</g>
		<g id="shape48-104" v:mID="48" v:groupContext="shape" transform="translate(33.5717,44.4972) rotate(-60)">
			<title>Sheet.48</title>
			<desc>Output Classes</desc>
			<v:textBlock v:margins="rect(4,4,4,4)"/>
			<v:textRect cx="26.1563" cy="158.676" width="52.32" height="11.5"/>
			<rect x="0" y="152.926" width="52.3125" height="11.5" class="st9"/>
			<text x="11.04" y="160.18" class="st10" v:langID="1033"><v:paragraph v:horizAlign="1"/><v:tabList/>Output Classes</text>		</g>
		<g id="shape49-107" v:mID="49" v:groupContext="shape" transform="translate(88.125,-95.551)">
			<title>Sheet.49</title>
			<rect x="0" y="159.645" width="3.375" height="4.78125" class="st6"/>
		</g>
		<g id="shape52-109" v:mID="52" v:groupContext="shape" transform="translate(152.002,-72.3635)">
			<title>Sheet.52</title>
			<desc>“stand”</desc>
			<v:textBlock v:margins="rect(4,4,4,4)"/>
			<v:textRect cx="14.8789" cy="162.035" width="29.76" height="4.78125"/>
			<rect x="0" y="159.645" width="29.7578" height="4.78125" class="st2"/>
			<text x="8.69" y="163.24" class="st8" v:langID="1033"><v:paragraph v:horizAlign="1"/><v:tabList/>“stand”</text>		</g>
		<g id="shape53-112" v:mID="53" v:groupContext="shape" transform="translate(147.447,-64.2072)">
			<title>Sheet.53</title>
			<desc>“stairascent”</desc>
			<v:textBlock v:margins="rect(4,4,4,4)"/>
			<v:textRect cx="14.8789" cy="162.035" width="29.76" height="4.78125"/>
			<rect x="0" y="159.645" width="29.7578" height="4.78125" class="st2"/>
			<text x="4.34" y="163.24" class="st8" v:langID="1033"><v:paragraph v:horizAlign="1"/><v:tabList/>“stairascent”</text>		</g>
		<g id="shape54-115" v:mID="54" v:groupContext="shape" transform="translate(142.947,-56.1916)">
			<title>Sheet.54</title>
			<desc>“stairdescent”</desc>
			<v:textBlock v:margins="rect(4,4,4,4)"/>
			<v:textRect cx="15.75" cy="162.035" width="31.5" height="4.78125"/>
			<rect x="0" y="159.645" width="31.5" height="4.78125" class="st2"/>
			<text x="4.12" y="163.24" class="st8" v:langID="1033"><v:paragraph v:horizAlign="1"/><v:tabList/>“stairdescent”</text>		</g>
		<g id="shape55-118" v:mID="55" v:groupContext="shape" transform="translate(137.939,-47.7541)">
			<title>Sheet.55</title>
			<desc>“rampascent”</desc>
			<v:textBlock v:margins="rect(4,4,4,4)"/>
			<v:textRect cx="15.4414" cy="162.035" width="30.89" height="4.78125"/>
			<rect x="0" y="159.645" width="30.8828" height="4.78125" class="st2"/>
			<text x="4.16" y="163.24" class="st8" v:langID="1033"><v:paragraph v:horizAlign="1"/><v:tabList/>“rampascent”</text>		</g>
		<g id="shape56-121" v:mID="56" v:groupContext="shape" transform="translate(132.333,-38.6135)">
			<title>Sheet.56</title>
			<desc>“rampdescent”</desc>
			<v:textBlock v:margins="rect(4,4,4,4)"/>
			<v:textRect cx="16.7207" cy="162.035" width="33.45" height="4.78125"/>
			<rect x="0" y="159.645" width="33.4414" height="4.78125" class="st2"/>
			<text x="4.35" y="163.24" class="st8" v:langID="1033"><v:paragraph v:horizAlign="1"/><v:tabList/>“rampdescent”</text>		</g>
		<g id="shape57-124" v:mID="57" v:groupContext="shape" transform="translate(73.3125,-34.7697)">
			<title>Sheet.57</title>
			<rect x="0" y="141.926" width="3.375" height="22.5" class="st1"/>
		</g>
		<g id="shape58-126" v:mID="58" v:groupContext="shape" transform="translate(71.625,-33.2303)">
			<title>Sheet.58</title>
			<rect x="0" y="141.926" width="3.375" height="22.5" class="st2"/>
		</g>
		<g id="shape59-128" v:mID="59" v:groupContext="shape" transform="translate(98.0625,-102.27)">
			<title>Sheet.59</title>
			<rect x="0" y="141.926" width="3.375" height="22.5" class="st1"/>
		</g>
		<g id="shape60-130" v:mID="60" v:groupContext="shape" transform="translate(96.375,-100.73)">
			<title>Sheet.60</title>
			<rect x="0" y="141.926" width="3.375" height="22.5" class="st2"/>
		</g>
		<g id="shape61-132" v:mID="61" v:groupContext="shape" transform="translate(-68.7966,31.2524) rotate(-80.1133)">
			<title>Sheet.61</title>
			<path d="M0 164.43 L18.56 164.43" class="st3"/>
		</g>
		<g id="shape63-135" v:mID="63" v:groupContext="shape" transform="translate(91.3125,-19.7895)">
			<title>Sheet.63</title>
			<rect x="0" y="141.926" width="3.375" height="22.5" class="st1"/>
		</g>
		<g id="shape64-137" v:mID="64" v:groupContext="shape" transform="translate(89.625,-18.25)">
			<title>Sheet.64</title>
			<rect x="0" y="141.926" width="3.375" height="22.5" class="st2"/>
		</g>
		<g id="shape65-139" v:mID="65" v:groupContext="shape" transform="translate(121.5,-109.789)">
			<title>Sheet.65</title>
			<rect x="0" y="141.926" width="3.375" height="22.5" class="st1"/>
		</g>
		<g id="shape66-141" v:mID="66" v:groupContext="shape" transform="translate(119.813,-108.25)">
			<title>Sheet.66</title>
			<rect x="0" y="141.926" width="3.375" height="22.5" class="st2"/>
		</g>
		<g id="shape67-143" v:mID="67" v:groupContext="shape" transform="translate(-48.7699,37.3055) rotate(-78.4256)">
			<title>Sheet.67</title>
			<path d="M0 164.43 L37.38 164.43" class="st3"/>
		</g>
	</g>
</svg>
