<?xml version="1.0" encoding="UTF-8" standalone="no"?>
<!DOCTYPE svg PUBLIC "-//W3C//DTD SVG 1.1//EN" "http://www.w3.org/Graphics/SVG/1.1/DTD/svg11.dtd">
<!-- Generated by Microsoft Visio, SVG Export MLP_arch.svg Page-1 -->
<svg xmlns="http://www.w3.org/2000/svg" xmlns:xlink="http://www.w3.org/1999/xlink" xmlns:ev="http://www.w3.org/2001/xml-events"
		xmlns:v="http://schemas.microsoft.com/visio/2003/SVGExtensions/" width="9.10476in" height="7.72059in"
		viewBox="0 0 655.543 555.883" xml:space="preserve" color-interpolation-filters="sRGB" class="st13">
	<v:documentProperties v:langID="1033" v:viewMarkup="false">
		<v:userDefs>
			<v:ud v:nameU="msvNoAutoConnect" v:val="VT0(1):26"/>
		</v:userDefs>
	</v:documentProperties>

	<style type="text/css">
	<![CDATA[
		.st1 {fill:#c4d6a0;stroke:#000000;stroke-dasharray:21,15;stroke-linecap:round;stroke-linejoin:round;stroke-width:3}
		.st2 {fill:#e5b9b5;stroke:#ff0000;stroke-linecap:round;stroke-linejoin:round;stroke-width:3}
		.st3 {fill:#ffffff;stroke:#000000;stroke-linecap:round;stroke-linejoin:round;stroke-width:3}
		.st4 {fill:#b7dde8;stroke:#0070c0;stroke-linecap:round;stroke-linejoin:round;stroke-width:3}
		.st5 {fill:#ffffff;marker-end:url(#mrkr13-14);stroke:#000000;stroke-linecap:round;stroke-linejoin:round;stroke-width:3}
		.st6 {fill:#000000;fill-opacity:1;stroke:#000000;stroke-opacity:1;stroke-width:0.54347826086957}
		.st7 {marker-end:url(#mrkr13-14);stroke:#000000;stroke-linecap:round;stroke-linejoin:round;stroke-width:3}
		.st8 {fill:none;stroke:none;stroke-linecap:round;stroke-linejoin:round;stroke-width:3}
		.st9 {fill:#000000;font-family:Calibri;font-size:3.33334em}
		.st10 {stroke:#000000;stroke-linecap:round;stroke-linejoin:round;stroke-width:3}
		.st11 {stroke:#ea700d;stroke-linecap:round;stroke-linejoin:round;stroke-width:3}
		.st12 {font-size:1em}
		.st13 {fill:none;fill-rule:evenodd;font-size:12px;overflow:visible;stroke-linecap:square;stroke-miterlimit:3}
	]]>
	</style>

	<defs id="Markers">
		<g id="lend13">
			<path d="M 3 1 L 0 0 L 3 -1 L 3 1 " style="stroke:none"/>
		</g>
		<marker id="mrkr13-14" class="st6" v:arrowType="13" v:arrowSize="2" v:setback="5.52" refX="-5.52" orient="auto"
				markerUnits="strokeWidth" overflow="visible">
			<use xlink:href="#lend13" transform="scale(-1.84,-1.84) "/>
		</marker>
	</defs>
	<g v:mID="0" v:index="1" v:groupContext="foregroundPage">
		<title>Page-1</title>
		<v:pageProperties v:drawingScale="1" v:pageScale="1" v:drawingUnits="19" v:shadowOffsetX="9" v:shadowOffsetY="-9"/>
		<g id="shape213-1" v:mID="213" v:groupContext="shape" transform="translate(191.976,-111.594)">
			<title>Sheet.213</title>
			<path d="M0 555.88 L299.75 555.88 L299.75 273.09 L0 273.09 L0 555.88 Z" class="st1"/>
		</g>
		<g id="shape204-3" v:mID="204" v:groupContext="shape" transform="translate(72.3313,-24.5789)">
			<title>Sheet.204</title>
			<rect x="0" y="88.1789" width="65.261" height="467.704" class="st2"/>
		</g>
		<g id="shape205-5" v:mID="205" v:groupContext="shape" transform="translate(202.853,-165.978)">
			<title>Sheet.205</title>
			<rect x="0" y="381.853" width="65.261" height="174.029" class="st3"/>
		</g>
		<g id="shape206-7" v:mID="206" v:groupContext="shape" transform="translate(311.622,-165.978)">
			<title>Sheet.206</title>
			<rect x="0" y="381.853" width="65.261" height="174.029" class="st3"/>
		</g>
		<g id="shape207-9" v:mID="207" v:groupContext="shape" transform="translate(527.125,-181.002)">
			<title>Sheet.207</title>
			<rect x="0" y="409.281" width="65.261" height="146.601" class="st4"/>
		</g>
		<g id="shape209-11" v:mID="209" v:groupContext="shape" transform="translate(77.7697,-427.022)">
			<title>Sheet.209</title>
			<ellipse cx="27.1921" cy="530.05" rx="27.1921" ry="25.8325" class="st5"/>
		</g>
		<g id="shape210-15" v:mID="210" v:groupContext="shape" transform="translate(77.7697,-357.682)">
			<title>Sheet.210</title>
			<ellipse cx="27.1921" cy="530.05" rx="27.1921" ry="25.8325" class="st5"/>
		</g>
		<g id="shape211-18" v:mID="211" v:groupContext="shape" transform="translate(77.7697,-288.342)">
			<title>Sheet.211</title>
			<ellipse cx="27.1921" cy="530.05" rx="27.1921" ry="25.8325" class="st5"/>
		</g>
		<g id="shape212-21" v:mID="212" v:groupContext="shape" transform="translate(77.7697,-35.4558)">
			<title>Sheet.212</title>
			<ellipse cx="27.1921" cy="530.05" rx="27.1921" ry="25.8325" class="st5"/>
		</g>
		<g id="shape214-24" v:mID="214" v:groupContext="shape" transform="translate(208.292,-278.825)">
			<title>Sheet.214</title>
			<ellipse cx="27.1921" cy="530.05" rx="27.1921" ry="25.8325" class="st3"/>
		</g>
		<g id="shape215-26" v:mID="215" v:groupContext="shape" transform="translate(208.292,-174.135)">
			<title>Sheet.215</title>
			<ellipse cx="27.1921" cy="530.05" rx="27.1921" ry="25.8325" class="st3"/>
		</g>
		<g id="shape216-28" v:mID="216" v:groupContext="shape" transform="translate(317.06,-278.825)">
			<title>Sheet.216</title>
			<ellipse cx="27.1921" cy="530.05" rx="27.1921" ry="25.8325" class="st3"/>
		</g>
		<g id="shape217-30" v:mID="217" v:groupContext="shape" transform="translate(317.06,-174.135)">
			<title>Sheet.217</title>
			<ellipse cx="27.1921" cy="530.05" rx="27.1921" ry="25.8325" class="st3"/>
		</g>
		<g id="shape218-32" v:mID="218" v:groupContext="shape" transform="translate(531.241,-271.438)">
			<title>Sheet.218</title>
			<ellipse cx="27.1921" cy="530.05" rx="27.1921" ry="25.8325" class="st3"/>
		</g>
		<g id="shape219-34" v:mID="219" v:groupContext="shape" transform="translate(531.625,-184.77)">
			<title>Sheet.219</title>
			<ellipse cx="27.1921" cy="530.05" rx="27.1921" ry="25.8325" class="st3"/>
		</g>
		<g id="shape220-36" v:mID="220" v:groupContext="shape" transform="translate(616.865,-164.642) rotate(60.7541)">
			<title>Sheet.220</title>
			<path d="M0 555.88 L141.6 555.88" class="st7"/>
		</g>
		<g id="shape221-41" v:mID="221" v:groupContext="shape" transform="translate(465.823,-258.245) rotate(37.2718)">
			<title>Sheet.221</title>
			<path d="M0 555.88 L83.88 555.88" class="st7"/>
		</g>
		<g id="shape222-46" v:mID="222" v:groupContext="shape" transform="translate(86.6335,-303.022) rotate(-4.50277)">
			<title>Sheet.222</title>
			<path d="M0 555.88 L62.52 555.88" class="st7"/>
		</g>
		<g id="shape223-51" v:mID="223" v:groupContext="shape" transform="translate(-399.586,335.421) rotate(-73.0518)">
			<title>Sheet.223</title>
			<path d="M0 555.88 L247.43 555.88" class="st7"/>
		</g>
		<g id="shape224-56" v:mID="224" v:groupContext="shape" transform="translate(663.376,-55.7721) rotate(72.9798)">
			<title>Sheet.224</title>
			<path d="M0 555.88 L244.67 555.88" class="st7"/>
		</g>
		<g id="shape225-61" v:mID="225" v:groupContext="shape" transform="translate(634.509,-47.5147) rotate(65.3748)">
			<title>Sheet.225</title>
			<path d="M0 555.88 L173.33 555.88" class="st7"/>
		</g>
		<g id="shape226-66" v:mID="226" v:groupContext="shape" transform="translate(577.322,-79.239) rotate(53.5343)">
			<title>Sheet.226</title>
			<path d="M0 555.88 L114.73 555.88" class="st7"/>
		</g>
		<g id="shape227-71" v:mID="227" v:groupContext="shape" transform="translate(-356.746,232.922) rotate(-61.5822)">
			<title>Sheet.227</title>
			<path d="M0 555.88 L143.46 555.88" class="st7"/>
		</g>
		<g id="shape228-76" v:mID="228" v:groupContext="shape" transform="translate(262.658,-305.586)">
			<title>Sheet.228</title>
			<path d="M0 555.88 L37.86 555.88" class="st7"/>
		</g>
		<g id="shape229-81" v:mID="229" v:groupContext="shape" transform="translate(262.671,-200.432)">
			<title>Sheet.229</title>
			<path d="M0 555.88 L37.83 555.88" class="st7"/>
		</g>
		<g id="shape234-86" v:mID="234" v:groupContext="shape" transform="translate(54.5488,-499.561)">
			<title>Sheet.234</title>
			<desc>44</desc>
			<v:textBlock v:margins="rect(4,4,4,4)"/>
			<v:textRect cx="50.413" cy="541.561" width="100.83" height="28.6425"/>
			<rect x="0" y="527.24" width="100.826" height="28.6425" class="st8"/>
			<text x="30.14" y="553.56" class="st9" v:langID="1033"><v:paragraph v:horizAlign="1"/><v:tabList/>44</text>		</g>
		<g id="shape235-89" v:mID="235" v:groupContext="shape" transform="translate(191.976,-338.404)">
			<title>Sheet.235</title>
			<desc>100</desc>
			<v:textBlock v:margins="rect(4,4,4,4)"/>
			<v:textRect cx="37.3061" cy="537.483" width="74.62" height="36.7999"/>
			<rect x="0" y="519.083" width="74.6121" height="36.7999" class="st8"/>
			<text x="6.9" y="549.48" class="st9" v:langID="1033"><v:paragraph v:horizAlign="1"/><v:tabList/>100</text>		</g>
		<g id="shape236-92" v:mID="236" v:groupContext="shape" transform="translate(298.223,-338.404)">
			<title>Sheet.236</title>
			<desc>100</desc>
			<v:textBlock v:margins="rect(4,4,4,4)"/>
			<v:textRect cx="37.3061" cy="537.483" width="74.62" height="36.7999"/>
			<rect x="0" y="519.083" width="74.6121" height="36.7999" class="st8"/>
			<text x="6.9" y="549.48" class="st9" v:langID="1033"><v:paragraph v:horizAlign="1"/><v:tabList/>100</text>		</g>
		<g id="shape237-95" v:mID="237" v:groupContext="shape" transform="translate(527.125,-326.803)">
			<title>Sheet.237</title>
			<desc>7</desc>
			<v:textBlock v:margins="rect(4,4,4,4)"/>
			<v:textRect cx="28.2773" cy="537.483" width="56.56" height="36.7999"/>
			<rect x="0" y="519.083" width="56.5546" height="36.7999" class="st8"/>
			<text x="18.14" y="549.48" class="st9" v:langID="1033"><v:paragraph v:horizAlign="1"/><v:tabList/>7</text>		</g>
		<g id="group249-98" transform="translate(214.999,-284.173)" v:mID="249" v:groupContext="group">
			<title>Sheet.249</title>
			<g id="shape250-99" v:mID="250" v:groupContext="shape" transform="translate(574.131,519.387) rotate(90)">
				<title>Sheet.250</title>
				<path d="M0 555.88 L36.5 555.88" class="st10"/>
			</g>
			<g id="shape251-102" v:mID="251" v:groupContext="shape" transform="translate(0,-18.2479)">
				<title>Sheet.251</title>
				<path d="M0 555.88 L36.5 555.88" class="st10"/>
			</g>
			<g id="shape252-105" v:mID="252" v:groupContext="shape" transform="translate(0,-18.2479)">
				<title>Sheet.252</title>
				<path d="M0 555.88 L18.25 555.88 L36.8 537.33" class="st11"/>
			</g>
		</g>
		<g id="group253-108" transform="translate(217.084,-181.568)" v:mID="253" v:groupContext="group">
			<title>Sheet.253</title>
			<g id="shape254-109" v:mID="254" v:groupContext="shape" transform="translate(574.131,519.387) rotate(90)">
				<title>Sheet.254</title>
				<path d="M0 555.88 L36.5 555.88" class="st10"/>
			</g>
			<g id="shape255-112" v:mID="255" v:groupContext="shape" transform="translate(0,-18.2479)">
				<title>Sheet.255</title>
				<path d="M0 555.88 L36.5 555.88" class="st10"/>
			</g>
			<g id="shape256-115" v:mID="256" v:groupContext="shape" transform="translate(0,-18.2479)">
				<title>Sheet.256</title>
				<path d="M0 555.88 L18.25 555.88 L36.8 537.33" class="st11"/>
			</g>
		</g>
		<g id="group258-118" transform="translate(544.656,-282.949)" v:mID="258" v:groupContext="group">
			<title>Sheet.258</title>
			<g id="shape259-119" v:mID="259" v:groupContext="shape" transform="translate(0,-14.1997)">
				<title>Sheet.259</title>
				<path d="M0 555.88 L27.55 555.88" class="st10"/>
			</g>
			<g id="shape260-122" v:mID="260" v:groupContext="shape" transform="translate(569.66,527.906) rotate(90)">
				<title>Sheet.260</title>
				<path d="M0 555.88 L27.55 555.88" class="st10"/>
			</g>
			<g id="shape261-125" v:mID="261" v:groupContext="shape" transform="translate(-391.92,163.54) rotate(-45)">
				<title>Sheet.261</title>
				<path d="M0 554.26 C3.68 556.21 7.92 556.07 11.87 555.55 C16 555.01 19.82 554.04 24.05 553.36 C29.65 552.47 35.96
							 552.09 38.97 554.26" class="st11"/>
			</g>
		</g>
		<g id="group262-128" transform="translate(545.04,-196.281)" v:mID="262" v:groupContext="group">
			<title>Sheet.262</title>
			<g id="shape263-129" v:mID="263" v:groupContext="shape" transform="translate(0,-14.1997)">
				<title>Sheet.263</title>
				<path d="M0 555.88 L27.55 555.88" class="st10"/>
			</g>
			<g id="shape264-132" v:mID="264" v:groupContext="shape" transform="translate(569.66,527.906) rotate(90)">
				<title>Sheet.264</title>
				<path d="M0 555.88 L27.55 555.88" class="st10"/>
			</g>
			<g id="shape265-135" v:mID="265" v:groupContext="shape" transform="translate(-391.92,163.54) rotate(-45)">
				<title>Sheet.265</title>
				<path d="M0 554.26 C3.68 556.21 7.92 556.07 11.87 555.55 C16 555.01 19.82 554.04 24.05 553.36 C29.65 552.47 35.96
							 552.09 38.97 554.26" class="st11"/>
			</g>
		</g>
		<g id="shape266-138" v:mID="266" v:groupContext="shape" transform="translate(208.53,-78.2039)">
			<title>Sheet.266</title>
			<desc>Hidden Layers</desc>
			<v:textBlock v:margins="rect(4,4,4,4)"/>
			<v:textRect cx="133.319" cy="541.531" width="266.64" height="28.7027"/>
			<rect x="0" y="527.18" width="266.639" height="28.7027" class="st8"/>
			<text x="18.49" y="553.53" class="st9" v:langID="1033"><v:paragraph v:horizAlign="1"/><v:tabList/>Hidden Layers</text>		</g>
		<g id="shape267-141" v:mID="267" v:groupContext="shape" transform="translate(300,-133.709)">
			<title>Sheet.267</title>
			<desc>BN</desc>
			<v:textBlock v:margins="rect(4,4,4,4)"/>
			<v:textRect cx="37.3061" cy="539.567" width="74.62" height="32.6305"/>
			<rect x="0" y="523.252" width="74.6121" height="32.6305" class="st8"/>
			<text x="13.52" y="551.57" class="st9" v:langID="1033"><v:paragraph v:horizAlign="1"/><v:tabList/>BN</text>		</g>
		<g id="shape268-144" v:mID="268" v:groupContext="shape" transform="translate(-500.105,410.837) rotate(-90)">
			<title>Sheet.268</title>
			<desc>Input Features</desc>
			<v:textBlock v:margins="rect(4,4,4,4)"/>
			<v:textRect cx="131.158" cy="542.105" width="262.32" height="27.5546"/>
			<rect x="0" y="528.328" width="262.317" height="27.5546" class="st8"/>
			<text x="12.7" y="554.11" class="st9" v:langID="1033"><v:paragraph v:horizAlign="1"/><v:tabList/>Input Features</text>		</g>
		<g id="shape269-147" v:mID="269" v:groupContext="shape" transform="translate(71.4371,432.679) rotate(-90)">
			<title>Sheet.269</title>
			<desc>Output Classes</desc>
			<v:textBlock v:margins="rect(4,4,4,4)"/>
			<v:textRect cx="141.399" cy="542.105" width="282.8" height="27.5546"/>
			<rect x="0" y="528.328" width="282.798" height="27.5546" class="st8"/>
			<text x="20.46" y="554.11" class="st9" v:langID="1033"><v:paragraph v:horizAlign="1"/><v:tabList/>Output Classes</text>		</g>
		<g id="group274-150" transform="translate(325.852,-286.257)" v:mID="274" v:groupContext="group">
			<title>Sheet.274</title>
			<g id="shape275-151" v:mID="275" v:groupContext="shape" transform="translate(574.131,519.387) rotate(90)">
				<title>Sheet.275</title>
				<path d="M0 555.88 L36.5 555.88" class="st10"/>
			</g>
			<g id="shape276-154" v:mID="276" v:groupContext="shape" transform="translate(0,-18.2479)">
				<title>Sheet.276</title>
				<path d="M0 555.88 L36.5 555.88" class="st10"/>
			</g>
			<g id="shape277-157" v:mID="277" v:groupContext="shape" transform="translate(0,-18.2479)">
				<title>Sheet.277</title>
				<path d="M0 555.88 L18.25 555.88 L36.8 537.33" class="st11"/>
			</g>
		</g>
		<g id="group278-160" transform="translate(325.852,-181.568)" v:mID="278" v:groupContext="group">
			<title>Sheet.278</title>
			<g id="shape279-161" v:mID="279" v:groupContext="shape" transform="translate(574.131,519.387) rotate(90)">
				<title>Sheet.279</title>
				<path d="M0 555.88 L36.5 555.88" class="st10"/>
			</g>
			<g id="shape280-164" v:mID="280" v:groupContext="shape" transform="translate(0,-18.2479)">
				<title>Sheet.280</title>
				<path d="M0 555.88 L36.5 555.88" class="st10"/>
			</g>
			<g id="shape281-167" v:mID="281" v:groupContext="shape" transform="translate(0,-18.2479)">
				<title>Sheet.281</title>
				<path d="M0 555.88 L18.25 555.88 L36.8 537.33" class="st11"/>
			</g>
		</g>
		<g id="shape282-170" v:mID="282" v:groupContext="shape" transform="translate(598.264,-192.845) rotate(37.1379)">
			<title>Sheet.282</title>
			<path d="M0 555.88 L61.92 555.88" class="st7"/>
		</g>
		<g id="shape283-175" v:mID="283" v:groupContext="shape" transform="translate(-241.283,120.854) rotate(-65.0375)">
			<title>Sheet.283</title>
			<path d="M0 555.88 L99.43 555.88" class="st7"/>
		</g>
		<g id="shape284-180" v:mID="284" v:groupContext="shape" transform="translate(-79.1343,-82.9267) rotate(-37.9438)">
			<title>Sheet.284</title>
			<path d="M0 555.88 L62.76 555.88" class="st7"/>
		</g>
		<g id="shape285-185" v:mID="285" v:groupContext="shape" transform="translate(756.372,-5.14913) rotate(62.6431)">
			<title>Sheet.285</title>
			<path d="M0 555.88 L101.83 555.88" class="st7"/>
		</g>
		<g id="shape286-190" v:mID="286" v:groupContext="shape" transform="translate(77.7697,-190.427)">
			<title>Sheet.286</title>
			<desc>. . .</desc>
			<v:textBlock v:margins="rect(4,4,4,4)"/>
			<v:textRect cx="27.1921" cy="542.105" width="54.39" height="27.5546"/>
			<rect x="0" y="528.328" width="54.3842" height="27.5546" class="st8"/>
			<text x="22.14" y="506.11" class="st9" v:langID="1033"><v:paragraph v:horizAlign="1"/><v:tabList/>.<v:newlineChar/><tspan
						x="22.14" dy="1.2em" class="st12">.<v:newlineChar/></tspan><tspan x="22.14" dy="1.2em" class="st12">.</tspan></text>		</g>
		<g id="shape350-195" v:mID="350" v:groupContext="shape" transform="translate(419.186,-165.978)">
			<title>Sheet.350</title>
			<rect x="0" y="381.853" width="65.261" height="174.029" class="st3"/>
		</g>
		<g id="shape351-197" v:mID="351" v:groupContext="shape" transform="translate(424.624,-278.825)">
			<title>Sheet.351</title>
			<ellipse cx="27.1921" cy="530.05" rx="27.1921" ry="25.8325" class="st3"/>
		</g>
		<g id="shape352-199" v:mID="352" v:groupContext="shape" transform="translate(424.624,-174.135)">
			<title>Sheet.352</title>
			<ellipse cx="27.1921" cy="530.05" rx="27.1921" ry="25.8325" class="st3"/>
		</g>
		<g id="shape353-201" v:mID="353" v:groupContext="shape" transform="translate(370.223,-305.586)">
			<title>Sheet.353</title>
			<path d="M0 555.88 L37.86 555.88" class="st7"/>
		</g>
		<g id="shape354-206" v:mID="354" v:groupContext="shape" transform="translate(370.236,-200.432)">
			<title>Sheet.354</title>
			<path d="M0 555.88 L37.83 555.88" class="st7"/>
		</g>
		<g id="shape355-211" v:mID="355" v:groupContext="shape" transform="translate(405.787,-338.404)">
			<title>Sheet.355</title>
			<desc>100</desc>
			<v:textBlock v:margins="rect(4,4,4,4)"/>
			<v:textRect cx="37.3061" cy="537.483" width="74.62" height="36.7999"/>
			<rect x="0" y="519.083" width="74.6121" height="36.7999" class="st8"/>
			<text x="6.9" y="549.48" class="st9" v:langID="1033"><v:paragraph v:horizAlign="1"/><v:tabList/>100</text>		</g>
		<g id="shape356-214" v:mID="356" v:groupContext="shape" transform="translate(407.564,-133.709)">
			<title>Sheet.356</title>
			<desc>BN</desc>
			<v:textBlock v:margins="rect(4,4,4,4)"/>
			<v:textRect cx="37.3061" cy="539.567" width="74.62" height="32.6305"/>
			<rect x="0" y="523.252" width="74.6121" height="32.6305" class="st8"/>
			<text x="13.52" y="551.57" class="st9" v:langID="1033"><v:paragraph v:horizAlign="1"/><v:tabList/>BN</text>		</g>
		<g id="group357-217" transform="translate(433.416,-286.257)" v:mID="357" v:groupContext="group">
			<title>Sheet.357</title>
			<g id="shape358-218" v:mID="358" v:groupContext="shape" transform="translate(574.131,519.387) rotate(90)">
				<title>Sheet.358</title>
				<path d="M0 555.88 L36.5 555.88" class="st10"/>
			</g>
			<g id="shape359-221" v:mID="359" v:groupContext="shape" transform="translate(0,-18.2479)">
				<title>Sheet.359</title>
				<path d="M0 555.88 L36.5 555.88" class="st10"/>
			</g>
			<g id="shape360-224" v:mID="360" v:groupContext="shape" transform="translate(0,-18.2479)">
				<title>Sheet.360</title>
				<path d="M0 555.88 L18.25 555.88 L36.8 537.33" class="st11"/>
			</g>
		</g>
		<g id="group361-227" transform="translate(433.416,-181.568)" v:mID="361" v:groupContext="group">
			<title>Sheet.361</title>
			<g id="shape362-228" v:mID="362" v:groupContext="shape" transform="translate(574.131,519.387) rotate(90)">
				<title>Sheet.362</title>
				<path d="M0 555.88 L36.5 555.88" class="st10"/>
			</g>
			<g id="shape363-231" v:mID="363" v:groupContext="shape" transform="translate(0,-18.2479)">
				<title>Sheet.363</title>
				<path d="M0 555.88 L36.5 555.88" class="st10"/>
			</g>
			<g id="shape364-234" v:mID="364" v:groupContext="shape" transform="translate(0,-18.2479)">
				<title>Sheet.364</title>
				<path d="M0 555.88 L18.25 555.88 L36.8 537.33" class="st11"/>
			</g>
		</g>
		<g id="shape365-237" v:mID="365" v:groupContext="shape" transform="translate(705.828,-192.845) rotate(37.1379)">
			<title>Sheet.365</title>
			<path d="M0 555.88 L61.92 555.88" class="st7"/>
		</g>
		<g id="shape366-242" v:mID="366" v:groupContext="shape" transform="translate(-133.719,120.854) rotate(-65.0375)">
			<title>Sheet.366</title>
			<path d="M0 555.88 L99.43 555.88" class="st7"/>
		</g>
		<g id="shape367-247" v:mID="367" v:groupContext="shape" transform="translate(28.43,-82.9267) rotate(-37.9438)">
			<title>Sheet.367</title>
			<path d="M0 555.88 L62.76 555.88" class="st7"/>
		</g>
		<g id="shape368-252" v:mID="368" v:groupContext="shape" transform="translate(863.936,-5.14913) rotate(62.6431)">
			<title>Sheet.368</title>
			<path d="M0 555.88 L101.83 555.88" class="st7"/>
		</g>
		<g id="shape369-257" v:mID="369" v:groupContext="shape" transform="translate(77.7697,-190.427)">
			<title>Sheet.369</title>
			<desc>. . .</desc>
			<v:textBlock v:margins="rect(4,4,4,4)"/>
			<v:textRect cx="27.1921" cy="542.105" width="54.39" height="27.5546"/>
			<rect x="0" y="528.328" width="54.3842" height="27.5546" class="st8"/>
			<text x="22.14" y="506.11" class="st9" v:langID="1033"><v:paragraph v:horizAlign="1"/><v:tabList/>.<v:newlineChar/><tspan
						x="22.14" dy="1.2em" class="st12">.<v:newlineChar/></tspan><tspan x="22.14" dy="1.2em" class="st12">.</tspan></text>		</g>
		<g id="group373-262" transform="translate(207.907,-202.039)" v:mID="373" v:groupContext="group">
			<title>Sheet.373</title>
			<g id="shape370-263" v:mID="370" v:groupContext="shape" transform="translate(-1.59872E-14,-24.6649)">
				<title>Sheet.370</title>
				<desc>.</desc>
				<v:textBlock v:margins="rect(4,4,4,4)"/>
				<v:textRect cx="27.1921" cy="530.05" width="54.39" height="51.6649"/>
				<rect x="0" y="504.218" width="54.3842" height="51.6649" class="st8"/>
				<text x="22.14" y="518.05" class="st9" v:langID="1033"><v:paragraph v:horizAlign="1"/><v:tabList/>.<v:newlineChar/></text>			</g>
			<g id="shape371-266" v:mID="371" v:groupContext="shape" transform="translate(0.384153,-12.3325)">
				<title>Sheet.371</title>
				<desc>.</desc>
				<v:textBlock v:margins="rect(4,4,4,4)"/>
				<v:textRect cx="27.1921" cy="530.05" width="54.39" height="51.6649"/>
				<rect x="0" y="504.218" width="54.3842" height="51.6649" class="st8"/>
				<text x="22.14" y="518.05" class="st9" v:langID="1033"><v:paragraph v:horizAlign="1"/><v:tabList/>.<v:newlineChar/></text>			</g>
			<g id="shape372-269" v:mID="372" v:groupContext="shape" transform="translate(0.384153,0)">
				<title>Sheet.372</title>
				<desc>.</desc>
				<v:textBlock v:margins="rect(4,4,4,4)"/>
				<v:textRect cx="27.1921" cy="530.05" width="54.39" height="51.6649"/>
				<rect x="0" y="504.218" width="54.3842" height="51.6649" class="st8"/>
				<text x="22.14" y="518.05" class="st9" v:langID="1033"><v:paragraph v:horizAlign="1"/><v:tabList/>.<v:newlineChar/></text>			</g>
		</g>
		<g id="group374-272" transform="translate(316.676,-199.874)" v:mID="374" v:groupContext="group">
			<title>Sheet.374</title>
			<g id="shape375-273" v:mID="375" v:groupContext="shape" transform="translate(-1.59872E-14,-24.6649)">
				<title>Sheet.375</title>
				<desc>.</desc>
				<v:textBlock v:margins="rect(4,4,4,4)"/>
				<v:textRect cx="27.1921" cy="530.05" width="54.39" height="51.6649"/>
				<rect x="0" y="504.218" width="54.3842" height="51.6649" class="st8"/>
				<text x="22.14" y="518.05" class="st9" v:langID="1033"><v:paragraph v:horizAlign="1"/><v:tabList/>.<v:newlineChar/></text>			</g>
			<g id="shape376-276" v:mID="376" v:groupContext="shape" transform="translate(0.384153,-12.3325)">
				<title>Sheet.376</title>
				<desc>.</desc>
				<v:textBlock v:margins="rect(4,4,4,4)"/>
				<v:textRect cx="27.1921" cy="530.05" width="54.39" height="51.6649"/>
				<rect x="0" y="504.218" width="54.3842" height="51.6649" class="st8"/>
				<text x="22.14" y="518.05" class="st9" v:langID="1033"><v:paragraph v:horizAlign="1"/><v:tabList/>.<v:newlineChar/></text>			</g>
			<g id="shape377-279" v:mID="377" v:groupContext="shape" transform="translate(0.384153,0)">
				<title>Sheet.377</title>
				<desc>.</desc>
				<v:textBlock v:margins="rect(4,4,4,4)"/>
				<v:textRect cx="27.1921" cy="530.05" width="54.39" height="51.6649"/>
				<rect x="0" y="504.218" width="54.3842" height="51.6649" class="st8"/>
				<text x="22.14" y="518.05" class="st9" v:langID="1033"><v:paragraph v:horizAlign="1"/><v:tabList/>.<v:newlineChar/></text>			</g>
		</g>
		<g id="group378-282" transform="translate(424.432,-199.874)" v:mID="378" v:groupContext="group">
			<title>Sheet.378</title>
			<g id="shape379-283" v:mID="379" v:groupContext="shape" transform="translate(-1.59872E-14,-24.6649)">
				<title>Sheet.379</title>
				<desc>.</desc>
				<v:textBlock v:margins="rect(4,4,4,4)"/>
				<v:textRect cx="27.1921" cy="530.05" width="54.39" height="51.6649"/>
				<rect x="0" y="504.218" width="54.3842" height="51.6649" class="st8"/>
				<text x="22.14" y="518.05" class="st9" v:langID="1033"><v:paragraph v:horizAlign="1"/><v:tabList/>.<v:newlineChar/></text>			</g>
			<g id="shape380-286" v:mID="380" v:groupContext="shape" transform="translate(0.384153,-12.3325)">
				<title>Sheet.380</title>
				<desc>.</desc>
				<v:textBlock v:margins="rect(4,4,4,4)"/>
				<v:textRect cx="27.1921" cy="530.05" width="54.39" height="51.6649"/>
				<rect x="0" y="504.218" width="54.3842" height="51.6649" class="st8"/>
				<text x="22.14" y="518.05" class="st9" v:langID="1033"><v:paragraph v:horizAlign="1"/><v:tabList/>.<v:newlineChar/></text>			</g>
			<g id="shape381-289" v:mID="381" v:groupContext="shape" transform="translate(0.384153,0)">
				<title>Sheet.381</title>
				<desc>.</desc>
				<v:textBlock v:margins="rect(4,4,4,4)"/>
				<v:textRect cx="27.1921" cy="530.05" width="54.39" height="51.6649"/>
				<rect x="0" y="504.218" width="54.3842" height="51.6649" class="st8"/>
				<text x="22.14" y="518.05" class="st9" v:langID="1033"><v:paragraph v:horizAlign="1"/><v:tabList/>.<v:newlineChar/></text>			</g>
		</g>
		<g id="group382-292" transform="translate(531.049,-201.773)" v:mID="382" v:groupContext="group">
			<title>Sheet.382</title>
			<g id="shape383-293" v:mID="383" v:groupContext="shape" transform="translate(-1.59872E-14,-24.6649)">
				<title>Sheet.383</title>
				<desc>.</desc>
				<v:textBlock v:margins="rect(4,4,4,4)"/>
				<v:textRect cx="27.1921" cy="530.05" width="54.39" height="51.6649"/>
				<rect x="0" y="504.218" width="54.3842" height="51.6649" class="st8"/>
				<text x="22.14" y="518.05" class="st9" v:langID="1033"><v:paragraph v:horizAlign="1"/><v:tabList/>.<v:newlineChar/></text>			</g>
			<g id="shape384-296" v:mID="384" v:groupContext="shape" transform="translate(0.384153,-12.3325)">
				<title>Sheet.384</title>
				<desc>.</desc>
				<v:textBlock v:margins="rect(4,4,4,4)"/>
				<v:textRect cx="27.1921" cy="530.05" width="54.39" height="51.6649"/>
				<rect x="0" y="504.218" width="54.3842" height="51.6649" class="st8"/>
				<text x="22.14" y="518.05" class="st9" v:langID="1033"><v:paragraph v:horizAlign="1"/><v:tabList/>.<v:newlineChar/></text>			</g>
			<g id="shape385-299" v:mID="385" v:groupContext="shape" transform="translate(0.384153,0)">
				<title>Sheet.385</title>
				<desc>.</desc>
				<v:textBlock v:margins="rect(4,4,4,4)"/>
				<v:textRect cx="27.1921" cy="530.05" width="54.39" height="51.6649"/>
				<rect x="0" y="504.218" width="54.3842" height="51.6649" class="st8"/>
				<text x="22.14" y="518.05" class="st9" v:langID="1033"><v:paragraph v:horizAlign="1"/><v:tabList/>.<v:newlineChar/></text>			</g>
		</g>
		<g id="shape386-302" v:mID="386" v:groupContext="shape" transform="translate(478.658,-303.204)">
			<title>Sheet.386</title>
			<path d="M0 555.88 L37.86 555.88" class="st7"/>
		</g>
		<g id="shape387-307" v:mID="387" v:groupContext="shape" transform="translate(478.671,-198.05)">
			<title>Sheet.387</title>
			<path d="M0 555.88 L37.83 555.88" class="st7"/>
		</g>
		<g id="shape388-312" v:mID="388" v:groupContext="shape" transform="translate(814.264,-190.463) rotate(37.1379)">
			<title>Sheet.388</title>
			<path d="M0 555.88 L61.92 555.88" class="st7"/>
		</g>
		<g id="shape389-317" v:mID="389" v:groupContext="shape" transform="translate(-25.283,123.236) rotate(-65.0375)">
			<title>Sheet.389</title>
			<path d="M0 555.88 L99.43 555.88" class="st7"/>
		</g>
		<g id="shape390-322" v:mID="390" v:groupContext="shape" transform="translate(136.866,-80.5447) rotate(-37.9438)">
			<title>Sheet.390</title>
			<path d="M0 555.88 L62.76 555.88" class="st7"/>
		</g>
		<g id="shape391-327" v:mID="391" v:groupContext="shape" transform="translate(972.372,-2.76712) rotate(62.6431)">
			<title>Sheet.391</title>
			<path d="M0 555.88 L101.83 555.88" class="st7"/>
		</g>
		<g id="shape392-332" v:mID="392" v:groupContext="shape" transform="translate(192.435,-133.907)">
			<title>Sheet.392</title>
			<desc>BN</desc>
			<v:textBlock v:margins="rect(4,4,4,4)"/>
			<v:textRect cx="37.3061" cy="539.567" width="74.62" height="32.6305"/>
			<rect x="0" y="523.252" width="74.6121" height="32.6305" class="st8"/>
			<text x="13.52" y="551.57" class="st9" v:langID="1033"><v:paragraph v:horizAlign="1"/><v:tabList/>BN</text>		</g>
	</g>
</svg>
